<?xml version="1.0" encoding="utf-8"?>
<!-- Generator: Adobe Illustrator 22.0.1, SVG Export Plug-In . SVG Version: 6.00 Build 0)  -->
<svg version="1.1" id="Layer_1" xmlns="http://www.w3.org/2000/svg" xmlns:xlink="http://www.w3.org/1999/xlink" x="0px" y="0px"
	 viewBox="0 0 780 780" style="enable-background:new 0 0 780 780;" xml:space="preserve">
<style type="text/css">
	.st0{fill:#CCCCCC;}
	.st1{fill:#FFFFFF;}
</style>
<title>Polka [Converted]</title>
<g>
	<path class="st0" d="M389.1,1.1c-215.4,0-390,174.6-390,390s174.6,390,390,390s390-174.6,390-390S604.6,1.1,389.1,1.1L389.1,1.1z"
		/>
</g>
<g id="Circle.4">
	<g id="Layer_0_">
		<g id="Lines">
			<path class="st1" d="M628.3,218.8l-0.5-12.4l-1.3-12.1l-2.2-11.7l-2.9-11.2l-3.7-10.7l-4.4-10.1l-5.1-9.5l-5.7-8.8l-6.3-8.1
				l-6.8-7.3l-7.3-6.5l-7.8-5.5l-8.2-4.6l-8.5-3.6l-8.9-2.5l-6.1-1.1l-9.3-0.6l-9.3,0.6l-9.1,1.8l-8.8,2.9l-8.4,3.9l-8,4.9l-7.6,5.9
				l-7,6.6l-6.6,7.5l-6.1,8.4l-5.5,9.1l-4.8,9.7l-4.2,10.3l-3.4,10.9l-2.7,11.4l-1.8,11.8l-0.8,8.1l-0.5,12.5l0.5,12.4l1.3,12.1
				l2.2,11.7l2.9,11.2l3.7,10.7l4.4,10.1l5.1,9.5l5.7,8.8l6.3,8.1l6.8,7.3l7.3,6.5l7.8,5.5l8.2,4.6l8.5,3.6l8.9,2.5l6.1,1.1l9.3,0.6
				l9.3-0.6l9.1-1.8l8.8-2.9l8.4-3.9l8-4.9l7.6-5.9l7.1-6.7l6.6-7.6l6.1-8.4l5.5-9.1l4.8-9.7l4.2-10.3l3.4-10.9l2.7-11.4l1.8-11.8
				C627.1,239.4,627.9,231.3,628.3,218.8z"/>
		</g>
	</g>
</g>
<g id="Circle.3">
	<g id="Layer_0_2">
		<g id="Lines-2">
			<path class="st1" d="M341.2,218.8l-0.5-12.4l-1.3-12.1l-2.2-11.7l-2.9-11.2l-3.7-10.7l-4.4-10.1l-5.1-9.5l-5.7-8.8l-6.3-8.1
				l-6.8-7.3l-7.3-6.5l-7.8-5.5l-8.2-4.6l-8.5-3.6l-8.8-2.5l-6.1-1.1l-9.3-0.6l-9.3,0.6l-9.1,1.8l-8.8,2.9l-8.4,3.9l-8,4.9l-7.6,5.9
				l-7.1,6.7l-6.7,7.6l-6.1,8.4l-5.5,9.1l-4.8,9.8l-4.2,10.3l-3.4,10.9l-2.7,11.4l-1.8,11.8l-0.8,8.1l-0.5,12.4l0.5,12.4l1.3,12.1
				l2.2,11.7l2.9,11.2l3.7,10.7l4.4,10.1l5.1,9.5l5.7,8.8l6.3,8.1l6.8,7.3l7.3,6.5l7.8,5.5l8.2,4.6l8.5,3.6l8.9,2.5l6.1,1.1l9.3,0.6
				l9.3-0.6l9.1-1.8l8.8-2.9l8.4-3.9l8-4.9l7.6-5.9l7.1-6.7l6.6-7.6l6.1-8.4l5.5-9.1l4.8-9.7l4.2-10.3l3.4-10.9l2.7-11.4l1.8-11.8
				C339.9,239.3,340.8,231.3,341.2,218.8z"/>
		</g>
	</g>
</g>
<g id="Circle.1">
	<g id="Layer_0_3">
		<g id="Lines-3">
			<path class="st1" d="M628.3,547.1l-0.5-12.4l-1.3-12.1l-2.2-11.7l-2.9-11.2l-3.7-10.7l-4.4-10.1l-5.1-9.5l-5.7-8.8l-6.3-8.1
				l-6.8-7.3l-7.3-6.5l-7.8-5.5l-8.2-4.6l-8.5-3.6l-8.9-2.5l-6.1-1.1l-9.3-0.6l-9.3,0.6l-9.1,1.8l-8.8,2.9l-8.4,3.9l-8,4.9l-7.6,5.9
				l-7.1,6.7l-6.6,7.5l-6.1,8.4l-5.5,9.1l-4.8,9.7l-4.2,10.3l-3.4,10.9l-2.7,11.4l-1.8,11.8l-0.8,8.1l-0.5,12.5l0.5,12.4l1.3,12.1
				l2.2,11.7l2.9,11.2l3.7,10.7l4.4,10.1l5.1,9.5l5.7,8.8l6.3,8.1l6.8,7.3l7.3,6.5l7.8,5.5l8.2,4.6l8.5,3.6l8.9,2.5l6.1,1.1l9.3,0.6
				l9.3-0.6l9.1-1.8l8.8-2.9l8.4-3.9l8-4.9l7.6-5.9l7.1-6.7l6.6-7.6l6.1-8.4l5.5-9.1l4.8-9.7l4.2-10.3l3.4-10.9l2.7-11.4l1.8-11.8
				C627.1,567.7,627.9,559.6,628.3,547.1z"/>
		</g>
	</g>
</g>
<g id="Circle.2">
	<g id="Layer_0_4">
		<g id="Lines-4">
			<path class="st1" d="M341.2,547.1l-0.5-12.4l-1.3-12.1l-2.2-11.7l-2.9-11.2l-3.7-10.7l-4.4-10.1l-5.1-9.5l-5.7-8.8l-6.3-8.1
				l-6.8-7.3l-7.3-6.5l-7.8-5.5l-8.2-4.6l-8.5-3.6l-8.8-2.5l-6.1-1.1l-9.3-0.6l-9.3,0.6l-9.1,1.8l-8.8,2.9l-8.4,3.9l-8,4.9l-7.6,5.9
				l-7.1,6.8l-6.7,7.5l-6.1,8.4l-5.5,9.1l-4.8,9.8l-4.2,10.3l-3.4,10.9l-2.7,11.4l-1.8,11.8l-0.8,8.1l-0.5,12.4l0.5,12.4l1.3,12.1
				l2.2,11.7l2.9,11.2l3.7,10.7l4.4,10.1l5.1,9.5l5.7,8.8l6.3,8.1l6.8,7.3l7.3,6.5l7.8,5.5l8.2,4.6l8.5,3.6l8.9,2.5l6.1,1.1l9.3,0.6
				l9.3-0.6l9.1-1.8l8.8-2.9l8.4-3.9l8-4.9l7.6-5.9l7.1-6.7l6.6-7.6l6.1-8.4l5.5-9.1l4.8-9.7l4.2-10.3l3.4-10.9l2.7-11.4l1.8-11.8
				C339.9,567.7,340.8,559.6,341.2,547.1z"/>
		</g>
	</g>
</g>
</svg>
