<svg id="Layer_16_copy" data-name="Layer 16 copy" xmlns="http://www.w3.org/2000/svg" viewBox="0 0 780 780"><title>Egg_in_Egg_v002</title><path d="M778.64,352.09l-5.45-37.3-8.86-36.05L755,252.05l-.27-.8s0,0,0,0l-2.5-7.13-10.72-23.33s0,0,0,0L737,211.05l-7-12v0l-11.12-19.23L698.11,150.4l-23.38-27.27L649,98.15,621,75.6l-30-19.92L562.36,40.33l0,0L559,38.54l-33.6-14.17-1.35-.43-6.29-2h0l-25-7.86h0l-2.46-.77L453.83,5.59l-25-3.24L390.45.5,352.09,2.36l-37.3,5.45-36.05,8.86L244.1,28.79,211.05,44,179.76,62.07,150.4,82.89l-27.27,23.38-25,25.78L75.6,160l-19.92,30L38.54,222l-14.17,33.6-11,35.13L5.59,327.17l-3.24,25L.5,390.55l1.86,38.36,5.45,37.3,8.86,36.05L28.79,536.9,44,570l18.09,31.29,20.82,29.37,23.38,27.26,25.78,25,28,22.54,30,19.92L222,742.46l33.6,14.17,35.13,11,36.47,7.73,25,3.24,38.37,1.85,38.36-1.86,37.3-5.45,36.05-8.86,34.64-12.12L570,737l31.29-18.09,29.36-20.82,27.27-23.38,25-25.78,22.55-28,19.92-30L742.46,559l14.17-33.6,11-35.13,7.73-36.47,3.24-25,1.72-35.64c0-.87.09-1.74.13-2.63v-.1Z" transform="translate(-0.5 -0.5)" style="fill:#ccc"/><path d="M427.94,481.78,426,464.29l-3.12-16.92-4.27-16.24-5.34-15.51-6.37-14.69-7.34-13.79-8.24-12.8-9.08-11.74L372.39,352l-10.52-9.31-.08-.06-11.17-8a.21.21,0,0,0-.1-.06L338.75,328l-.1-.05-12.3-5.17-.12,0-12.78-3.61-.1,0-8.75-1.52h-.11l-13.44-.86h-.13l-13.44.86-.12,0-13.07,2.54-.12,0-12.63,4.14-.11,0L239.3,330l-.1.05-11.58,7.09a.27.27,0,0,0-.08.07l-11,8.44-.07.07-10.35,9.79-9.61,11-8.8,12.1-7.94,13.15-7,14.09-6,15-5,15.77L157.89,453l-2.72,17.1L154,481.85l-.65,18,.66,18L156,535.32l3.12,16.91,4.27,16.25L168.69,584l6.37,14.68,7.33,13.79,8.24,12.8L199.71,637l9.87,10.6,10.52,9.31.08.06,11.18,8,.09.06,11.77,6.62.1.05,12.31,5.16.11,0,12.78,3.61.1,0,8.76,1.51h.1l13.44.87h.13l13.44-.87h.13l13.06-2.54.12,0,12.63-4.14.11,0,12.13-5.65.1-.06,11.58-7.09.09-.06,11-8.45.08-.06,10.35-9.8,9.6-11,8.8-12.11,7.94-13.14,7-14.1,6-15,5-15.76,3.88-16.48,2.72-17.1c0-.12,1.15-11.91,1.79-29.65v-.07Zm-39.26,96.79-3.77,11.91-4.55,11.31-5.3,10.65-6,9.93-6.65,9.14-7.26,8.31-7.82,7.4-.08.07L339,653.66l-.09.06-8.73,5.35-.1,0-9.15,4.27-.11,0-9.52,3.12-.12,0-9.86,1.92-.12,0-10.14.65h-.13l-10.13-.65-.11,0-6.6-1.14-.1,0-9.64-2.73-.12,0-9.28-3.89-.1,0-8.88-5-.09-.06-8.43-6-.08-.06-7.93-7-7.46-8-6.87-8.87-6.23-9.68-5.54-10.41-4.81-11.1-4-11.71-3.22-12.28-2.36-12.77-1.45-13.21L187,530.83l.49-13.58.86-8.87,2.05-12.91L193.29,483l3.77-11.91,4.55-11.31,5.3-10.65,6-9.93,6.65-9.15,7.26-8.3,7.83-7.4.07-.07,8.27-6.37.09-.06,8.73-5.35.1,0,9.15-4.27.11,0,9.53-3.13.12,0,9.85-1.91.13,0,10.13-.65h.13l10.14.65h.1l6.6,1.14.11,0,9.64,2.72.11,0,9.28,3.9a.31.31,0,0,1,.1.05l8.88,5,.09.06,8.43,6,.08.06,7.93,7,7.47,8,6.86,8.87,6.23,9.68,5.54,10.41,4.81,11.1,4,11.71,3.22,12.27L393.07,504l1.45,13.21.5,13.58v.07c-.49,13.39-1.35,22.29-1.35,22.38l-2.06,12.91Z" transform="translate(-0.5 -0.5)" style="fill:#ccc"/><path d="M728.87,237.9l-10.35,9.79a.27.27,0,0,1-.08.07l-11,8.45-.09.06-11.57,7.09-.1.05-12.14,5.66-.11,0-12.63,4.14-.12,0-13.06,2.54-.13,0-13.43.87H644l-13.44-.87h-.11l-8.75-1.52-.1,0-12.78-3.61-.12,0-12.3-5.16-.11-.05-11.77-6.63-.09-.05-11.17-8-.08-.06-10.52-9.31-9.87-10.6L543.67,219l-8.23-12.8-7.34-13.79-6.37-14.68-5.35-15.51L512.12,146,509,129.09l-1.92-17.49-.65-18,.65-18,1.14-11.74,2.72-17.1,3.88-16.48,2.74-8.68-23.19-7.29-1.51,4.77-4.57,19.38-3.2,20.15-1.34,13.78L483,93.61l.77,21.18L486,135.38l3.67,19.9,5,19.12L501,192.64l7.48,17.26,8.62,16.2,9.67,15,10.66,13.78L549,267.33l12.37,10.94,13.17,9.43,13.86,7.8,14.49,6.07,15,4.26,10.28,1.78,15.82,1,15.81-1,15.38-3,14.86-4.87,14.29-6.66L718,284.73l12.92-10,12.16-11.5,11.27-12.88.23-.33-2.3-6.58-10-21.81C737.28,228.28,729,237.8,728.87,237.9Z" transform="translate(-0.5 -0.5)" style="fill:#fff"/><polygon points="561.21 43.39 555.98 53.9 551.48 65.06 547.76 76.82 544.87 89.13 542.84 101.91 541.99 110.65 541.5 124.1 541.99 137.54 543.42 150.61 545.75 163.24 548.94 175.36 552.93 186.93 557.68 197.89 563.14 208.16 569.28 217.69 576.03 226.42 583.37 234.29 591.19 241.21 599.53 247.19 608.31 252.13 617.48 255.97 627.01 258.67 633.51 259.79 643.53 260.44 653.54 259.79 663.27 257.9 672.68 254.82 681.72 250.6 690.36 245.31 698.54 239 706.26 231.7 713.4 223.53 719.95 214.53 725.86 204.74 729.43 197.55 718.59 178.8 697.82 149.51 674.5 122.32 648.79 97.39 620.88 74.91 590.92 55.03 563.18 40.13 561.21 43.39" style="fill:#fff"/><polygon points="587.1 57.64 583.08 65.71 579.63 74.3 576.77 83.34 574.54 92.8 572.98 102.62 572.33 109.34 571.95 119.69 572.33 130.02 573.43 140.06 575.22 149.77 577.67 159.1 580.74 167.99 584.39 176.41 588.59 184.31 593.31 191.64 598.5 198.35 604.14 204.4 610.15 209.72 616.57 214.31 623.32 218.11 630.37 221.07 637.7 223.14 642.69 224 650.39 224.5 658.09 224 665.56 222.55 672.8 220.18 679.75 216.94 686.39 212.87 692.69 208.02 698.62 202.41 704.11 196.13 709.14 189.21 713.68 181.68 716.43 176.15 708.1 161.74 692.13 139.22 674.2 118.31 654.44 99.15 632.98 81.87 609.95 66.59 588.62 55.13 587.1 57.64" style="fill:#ccc"/><path d="M394.52,517.18,393.07,504l-2.36-12.78-3.22-12.27-4-11.71-4.81-11.1L373.1,445.7,366.87,436,360,427.15l-7.47-8-7.93-7-.08-.06-8.43-6L336,406l-8.88-5a.31.31,0,0,0-.1-.05l-9.28-3.9-.11,0L308,394.26l-.11,0-6.6-1.14h-.1l-10.14-.65h-.13l-10.13.65-.13,0L270.81,395l-.12,0-9.53,3.13-.11,0-9.15,4.27-.1,0-8.73,5.35-.09.06-8.27,6.37-.07.07-7.83,7.4-7.26,8.3-6.65,9.15-6,9.93-5.3,10.65-4.55,11.31L193.29,483l-2.93,12.44-2.05,12.91-.86,8.87L187,530.83l.49,13.59,1.45,13.21,2.36,12.77,3.22,12.28,4,11.71,4.81,11.1,5.54,10.41,6.23,9.68,6.87,8.87,7.46,8,7.93,7,.08.06,8.43,6,.09.06,8.88,5,.1,0,9.28,3.89.12,0,9.64,2.73.1,0,6.6,1.14.11,0,10.13.65h.13l10.14-.65.12,0,9.86-1.92.12,0,9.52-3.12.11,0,9.15-4.27.1,0,8.73-5.35.09-.06,8.27-6.37.08-.07,7.82-7.4,7.26-8.31,6.65-9.14,6-9.93,5.3-10.65,4.55-11.31,3.77-11.91,2.93-12.45,2.06-12.91c0-.09.86-9,1.35-22.38v-.07Z" transform="translate(-0.5 -0.5)" style="fill:#fff"/><path d="M518.47,23.23l-2.72,8.6L511.9,48.17l-2.7,17-1.13,11.61-.64,17.86.65,17.84L510,129.8l3.09,16.76,4.23,16.11L522.59,178l6.31,14.55,7.26,13.64,8.15,12.66,9,11.6L563,240.94l10.42,9.21,11.08,7.94,11.67,6.57,12.2,5.11,12.67,3.58,8.65,1.5,13.32.86,13.31-.86,12.94-2.52,12.51-4.1,12-5.61,11.48-7,10.88-8.38,10.25-9.69s9.07-10.38,13.89-16.91l-4.18-9.1-6-10.38-3,6.07-6,9.93-6.65,9.15-7.25,8.31-7.83,7.4-.07.06L691,248.43l-.09.06-8.73,5.34-.1.06L673,258.15l-.11.05-9.53,3.12-.12,0-9.85,1.92h-.13l-10.13.66H643l-10.14-.66h-.1l-6.61-1.14-.1,0-9.64-2.73-.11,0L607,255.45l-.11,0-8.87-5-.09-.05-8.43-6a.27.27,0,0,1-.08-.07l-7.94-7-7.46-8-6.86-8.87-6.23-9.67-5.54-10.42-4.82-11.09-4-11.72-3.22-12.27L541,152.4l-1.45-13.21L539,125.6l.49-13.58.86-8.87,2.06-12.91,2.93-12.45,3.76-11.9,4.56-11.31L559,43.93l1.95-3.25-2.31-1.24L525.09,25.3Z" transform="translate(-0.5 -0.5)" style="fill:#ccc"/><path d="M453.26,478.44,451,457.7l-3.7-20-5-19.26L435.89,400l-7.55-17.41-8.69-16.34-9.76-15.17-10.77-13.92-11.7-12.56-12.47-11-.08-.06L361.61,304l-.09-.05-14-7.86-.1-.05-14.6-6.12-.12,0-15.16-4.29-.1,0-10.38-1.8H307l-15.94-1h-.13l-15.94,1-.13,0-15.49,3-.12,0-15,4.91-.11.05-14.4,6.71-.1.05L215.92,307l-.09.06-13,10-.08.07-12.27,11.6-11.38,13-10.43,14.35-9.41,15.58L151,388.36l-7.15,17.75-5.91,18.69-4.6,19.53-3.23,20.27-1.35,13.91-.77,21.33.78,21.33L131,541.9l3.7,20.05,5.05,19.26,6.34,18.38L153.63,617l8.69,16.34,9.77,15.18,10.76,13.91L194.55,675,207,686l.08.06,13.25,9.5.09.06,14,7.85.11,0,14.59,6.12.12,0L264.39,714l.1,0,10.38,1.79H275l15.94,1h.13l15.94-1h.13l15.49-3,.12,0,15-4.91.11,0,14.39-6.71.1-.06,13.73-8.41.09-.06,13-10a.27.27,0,0,0,.08-.07l12.27-11.6,11.38-13,10.43-14.35L422.71,628,431,611.24l7.15-17.74,5.91-18.69,4.61-19.54L451.91,535c0-.14,1.36-14.12,2.12-35.16v-.07Zm-24.67,21.4c-.64,17.74-1.78,29.53-1.79,29.65l-2.72,17.1-3.88,16.48-5,15.76-6,15-7,14.1L394.23,621l-8.8,12.11-9.6,11-10.35,9.8-.08.06-11,8.45-.09.06-11.58,7.09-.1.06-12.13,5.65-.11,0-12.63,4.14-.12,0-13.06,2.54h-.13l-13.44.87h-.13l-13.44-.87h-.1l-8.76-1.51-.1,0-12.78-3.61-.11,0-12.31-5.16-.1-.05L231.45,665l-.09-.06-11.18-8-.08-.06-10.52-9.31L199.71,637l-9.08-11.74-8.24-12.8-7.33-13.79L168.69,584l-5.35-15.51-4.27-16.25L156,535.32,154,517.83l-.66-18,.65-18,1.14-11.74,2.72-17.1,3.88-16.47,5-15.77,6-15,7-14.09,7.94-13.15,8.8-12.1,9.61-11,10.35-9.79.07-.07,11-8.44a.27.27,0,0,1,.08-.07L239.2,330l.1-.05,12.13-5.66.11,0,12.63-4.14.12,0,13.07-2.54.12,0,13.44-.86h.13l13.44.86h.11l8.75,1.52.1,0,12.78,3.61.12,0,12.3,5.17.1.05,11.77,6.62a.21.21,0,0,1,.1.06l11.17,8,.08.06L372.39,352l9.87,10.6,9.08,11.74,8.24,12.8,7.34,13.79,6.37,14.69,5.34,15.51,4.27,16.24L426,464.29l1.92,17.49.65,18Z" transform="translate(-0.5 -0.5)" style="fill:#fff"/></svg>