<?xml version="1.0" encoding="utf-8"?>
<!-- Generator: Adobe Illustrator 22.0.1, SVG Export Plug-In . SVG Version: 6.00 Build 0)  -->
<svg version="1.1" id="Layer_1" xmlns="http://www.w3.org/2000/svg" xmlns:xlink="http://www.w3.org/1999/xlink" x="0px" y="0px"
	 viewBox="0 0 780 780" style="enable-background:new 0 0 780 780;" xml:space="preserve">
<style type="text/css">
	.st0{fill:#FFFFFF;}
	.st1{fill:#CCCCCC;}
	.st2{display:none;}
	.st3{display:inline;}
	.st4{fill:#231F20;}
</style>
<g>
	<path class="st0" d="M389.2,1.2c-215.4,0-390,174.6-390,390s174.6,390,390,390s390-174.6,390-390S604.6,1.2,389.2,1.2L389.2,1.2z"
		/>
</g>
<g id="Circle">
	<g id="Layer_0_3">
		<g id="Lines-3">
			<g>
				<path class="st1" d="M390,1.1l-38.4,1.8l-15.9,2.4l8.2,17.8l7.5,21.4l5.5,22.3l3.4,23l1.1,23.8l-1.1,23.7l-2,15.4l-4.8,22.5
					l-6.9,21.7l-8.7,20.8l-10.6,19.7L315,256l-14,17.3l-15.4,16l-16.9,14.4l-18.1,12.9l-19.3,11.3l-20.5,9.4l-21.4,7.5l-22.3,5.5
					l-23,3.4l-23.7,1.1l-23.7-1.1l-15.4-2l-22.5-4.8L37.1,340l-20.8-8.8l-10.5-5.6l-0.5,2.3L2,353l-2,38.1l1.8,38.4l4.8,32.9
					l2.7-1.5l20.5-9.4l21.4-7.5l22.2-5.5l23-3.4l23.7-1.1l23.7,1.1l15.4,2l22.5,4.8l21.7,6.9l20.8,8.8l19.7,10.6l18.6,12.3
					l17.3,13.9l16,15.4l14.4,16.9l12.9,18.2l11.2,19.3l9.4,20.5l7.5,21.4l5.5,22.3l3.4,23l1.1,23.7l-1.1,23.7l-2,15.4l-4.8,22.5
					l-6.9,21.7l-8,19l13,1.7l38.4,1.8l38.4-1.8l13.4-1.9l-5.4-11.8l-7.5-21.4l-5.5-22.3l-3.4-23l-1.1-23.7l1.1-23.7l2-15.4l4.8-22.5
					l6.9-21.7l8.8-20.8l10.6-19.7l12.3-18.5l13.9-17.3l15.4-16l16.9-14.4l18.1-12.9l19.3-11.1l20.5-9.4l21.4-7.5l22.3-5.5l23-3.4
					l23.7-1.1l23.7,1.1l15.4,2l22.5,4.8l21.7,6.9l0,0c1.1,0,21.2,8.5,30,13.2l1.6-7.9l3.3-25.1l1.8-38.4l-1.8-38.4l-4.8-33l-2.5,1.4
					l-20.5,9.4l-21.4,7.6l-22.3,5.5l-23,3.4l-23.7,1.1l-23.7-1.1l-15.4-2l-22.5-4.8l-21.7-6.9l-20.8-8.8l-19.7-10.6l-18.5-12.3
					l-17.3-13.9l-16-15.4L469.7,255L457,237.1l-11.3-19.3l-9.4-20.5l-7.5-21.4l-5.5-22.3l-3.4-23l-1.1-23.7l1.1-23.7l2-15.4
					l4.8-22.5l6.9-21.7l7.9-18.7L428.4,3L390,1.1L390,1.1z"/>
			</g>
			<g>
				<path class="st1" d="M478.4,11.7l-3.7,6.9l-7.5,17.6l-5.7,18.4l-4,19.1l-1.7,13.1l-1,20l1,20l2.9,19.5l4.6,18.9l6.3,18.1l8,17.3
					l9.5,16.4l10.9,15.3l12.2,14.2l13.5,13.1l14.6,11.9l15.8,10.4l16.7,9l17.7,7.4l18.4,5.7l19.1,4l13.1,1.7l20.1,1l20.1-1l19.5-2.9
					l18.9-4.6l18-6.2l0,0c0.1,0,17.3-7.9,27.8-14l-0.7-2.9l-12-34.3l-2.3,1.5l-13.3,7.7l-14,6.4l-14.7,5.1l-15.3,3.8l-15.9,2.4
					l-16.4,0.8l-16.4-0.8l-10.6-1.4l-15.6-3.3l-14.9-4.7l-14.3-6l-13.6-7.3l-12.8-8.5l-11.9-9.6L538,220.5l-9.9-11.6l-8.9-12.5
					l-7.7-13.3l-6.4-14l-5.1-14.7l-3.8-15.3l-2.4-15.9l-0.8-16.4l0.8-16.4l1.4-10.7l3.3-15.5l4.7-14.9l6-14.3l6.8-12.7l-27.1-8.5
					L478.4,11.7L478.4,11.7z"/>
			</g>
			<g>
				<path class="st1" d="M552.1,37l-2.9,4.3l-5.6,10.4l-4.6,11l-3.6,11.6l-2.6,12l-1,8.2l-0.6,12.6l0.6,12.6l1.7,12.3l2.9,11.9
					l4,11.4l5,10.8l5.9,10.2l6.9,9.6l7.7,8.9l8.5,8.2l9.2,7.4l9.8,6.5l10.4,5.6l11,4.7l11.6,3.6l12,2.6l8.2,1l12.6,0.6l12.6-0.6
					l12.3-1.7l11.9-2.9l11.4-4l10.8-5c-0.2-0.2,10-6,16.5-10.6l-17.1-29.7l-2.9-4l-0.8,0.7l-6.8,4.8l-7.2,4.1l-7.6,3.5l-7.9,2.8
					l-8.2,2l-8.5,1.2l-8.8,0.4l-8.8-0.4l-5.7-0.7l-8.3-1.7l-8-2.6l-7.7-3.3l-7.3-3.9l-6.9-4.5l-6.3-5.1l-5.8-5.7l-5.4-6.2L584,155
					l-4.1-7.2l-3.5-7.6l-2.8-7.9l-2-8.2l-1.2-8.5L570,107l0.4-8.8l0.7-5.7l1.7-8.3l2.6-8l3.3-7.7l3.9-7.3l4.2-6.2l-29.1-15.6
					L552.1,37L552.1,37z"/>
			</g>
			<g>
				<path class="st1" d="M619.6,76.4l-0.9,1.1l-2.6,3.9l-2.1,4.1l-1.8,4.3l-1.4,4.5l-1,4.7l-0.4,3.2l-0.2,4.9l0.2,4.9l0.7,4.8
					l1.1,4.6l1.5,4.4l1.9,4.2l2.4,4l2.7,3.8l3,3.5l3.3,3.2l3.6,2.9l3.9,2.6l4.1,2.1l4.3,1.8l4.5,1.4l4.7,1l3.2,0.4l4.9,0.2l4.9-0.2
					l4.8-0.7l4.6-1.1l4.4-1.5l4.2-1.9l4-2.4c0.1,0,3.8-2.8,5.5-4.1l-18.1-21.1l-25.8-25L619.6,76.4L619.6,76.4z"/>
			</g>
			<g>
				<path class="st1" d="M297.6,11.5l-19.3,4.8L260,22.7l0.2,0.2l7.7,13.3l6.4,14l5.1,14.7l3.8,15.3l2.4,15.9l0.8,16.4l-0.8,16.4
					l-1.4,10.6l-3.3,15.6l-4.7,14.9l-6,14.3l-7.4,13.6l-8.5,12.8l-9.5,11.9l-10.6,10.9l-11.6,9.9l-12.5,8.9l-13.3,7.7l-14,6.4
					l-14.7,5.1l-15.3,3.8l-16,2.4l-16.4,0.8l-16.4-0.8l-10.6-1.4L77.8,273l-14.9-4.7l-14.3-6L35,255l-8.6-5.7l-2.5,5.7l-10,31.8
					l1.4,0.9l16.7,9l17.6,7.5l18.4,5.7l19.1,4l13.1,1.7l20.1,1l20.1-1l19.5-2.9l18.9-4.6l18.1-6.3l17.3-8l16.4-9.5l15.3-10.9
					l14.3-12.3l13.1-13.5l11.8-14.6l10.4-15.8l9-16.7l7.5-17.6l5.8-18.4l4-19.1l1.7-13.1l1-20l-1-20l-2.9-19.5L316,53.9l-6.3-18.1
					l0,0C309.6,35.8,301.8,18.6,297.6,11.5L297.6,11.5z"/>
			</g>
			<g>
				<path class="st1" d="M223.9,37.5l-13.2,6L189.2,56l1.5,1.7l4.8,6.8l4.1,7.2l3.5,7.6l2.8,7.9l2,8.2l1.2,8.5l0.4,8.8l-0.4,8.8
					l-0.7,5.7l-1.7,8.3l-2.6,8l-3.3,7.7l-3.9,7.3l-4.5,6.9l-5.1,6.3l-5.7,5.9l-6.2,5.3l-6.8,4.8l-7.2,4.2l-7.6,3.5L146,198l-8.2,2
					l-8.5,1.2l-8.8,0.4l-8.8-0.4l-5.7-0.7l-8.3-1.7l-8-2.6l-7.7-3.3l-7.4-4l-6.9-4.5l-5.8-4.8l-6.5,9.8l-13,24.2l2.5,2l9.8,6.5
					l10.4,5.6l11,4.6l11.5,3.7l12,2.6l8.2,1l12.6,0.6l12.6-0.6l12.3-1.7l11.9-2.9l11.4-4l10.8-5l10.2-5.9l9.6-6.9l8.9-7.7l8.2-8.5
					l7.4-9.2l6.5-9.8l5.5-10.4l4.7-11L244,145l2.6-12l1-8.2l0.6-12.6l-0.6-12.6l-1.7-12.3L243,75.8l-4-11.4l-5-10.7
					C234,53.7,228,43.5,223.9,37.5L223.9,37.5z"/>
			</g>
			<g>
				<path class="st1" d="M156.3,77.9l-6.3,4.5l-27.3,23.4l-25,25.8l-13,16.1l2.5,2.4l3.6,2.9l3.9,2.6l4.1,2.1l4.3,1.8l4.5,1.4l4.7,1
					l3.2,0.4l4.9,0.2l4.9-0.2l4.8-0.7l4.6-1.1l4.4-1.5l4.2-1.9l4-2.4l3.8-2.7l3.5-3l3.2-3.3l2.9-3.6l2.6-3.9l2.1-4.1l1.8-4.3
					l1.4-4.5l1-4.7l0.4-3.2l0.2-4.9l-0.2-4.9l-0.7-4.8l-1.1-4.6l-1.5-4.4l-1.9-4.3l-2.4-4l-2.7-3.8
					C159.7,81.8,156.7,78.3,156.3,77.9L156.3,77.9z"/>
			</g>
			<g>
				<path class="st1" d="M120.3,469.7l-20.1,1l-19.5,2.9l-18.9,4.7l-18.1,6.3c0,0-17.3,7.9-28.2,14.1l0.7,3l12,34.2l2.5-1.7
					l13.3-7.7l14-6.4l14.7-5.1l15.3-3.8l15.9-2.4l16.4-0.8l16.4,0.8l10.6,1.4l15.6,3.3l14.9,4.7l14.3,6l13.6,7.3l12.8,8.5l11.9,9.6
					l10.9,10.6l9.9,11.6l8.9,12.5l7.7,13.3l6.4,14l5.2,14.8l3.8,15.3l2.4,15.9l0.8,16.4l-0.8,16.4l-1.4,10.6l-3.3,15.5l-4.7,14.9
					l-6,14.3l-7,12.9l27,8.5l10.5,2.3l3.9-7.2l7.4-17.6l5.8-18.4l4-19.1l1.7-13.1l1-20l-1-20l-2.9-19.5l-4.6-18.9l-6.3-18l-8-17.3
					l-9.5-16.4l-10.9-15.3L269,534.1L255.5,521l-14.6-11.8l-15.6-10.6l-16.7-9l-17.6-7.5l-18.4-5.7l-19.1-4l-13.1-1.7L120.3,469.7
					L120.3,469.7z"/>
			</g>
			<g>
				<path class="st1" d="M120.3,545.9l-12.6,0.6l-12.2,1.7l-11.9,2.9l-11.4,4l-10.8,5c-0.1,0.2-10.3,6-17.1,10.8l17.2,29.8l2.8,4
					l1.1-1l6.8-4.8l7.2-4.1l7.6-3.5l7.9-2.8l8.2-2l8.5-1.2l8.8-0.4l8.8,0.4l5.7,0.7l8.3,1.7l8,2.6l7.7,3.3l7.3,3.9l6.9,4.5l6.3,5.1
					l5.9,5.7l5.3,6.2l4.8,6.8l4.1,7.2l3.5,7.6l2.8,7.9l2,8.2l1.2,8.5l0.4,8.8l-0.4,8.8l-0.7,5.7l-1.7,8.3l-2.6,8l-3.3,7.7l-3.9,7.3
					l-4.4,6.5l29.1,15.5l5.7,2.4l3-4.6l5.6-10.4l4.7-11l3.6-11.6l2.6-12l1-8.2l0.6-12.6l-0.6-12.6l-1.7-12.3l-2.9-11.9l-4-11.4
					l-5-10.8l-5.9-10.2l-6.9-9.6l-7.7-8.9l-8.5-8.2l-9.2-7.4l-9.8-6.5l-10.3-5.6l-11-4.6l-11.6-3.6l-12-2.6l-8.2-1L120.3,545.9
					L120.3,545.9z"/>
			</g>
			<g>
				<path class="st1" d="M120.2,623.9l-4.9,0.2l-4.8,0.7l-4.6,1.1l-4.4,1.5l-4.2,1.9l-4,2.4c0,0-3.8,2.7-5.7,4.3l18.1,21.2l25.8,25
					l28,22.5l1-1.3l2.6-3.9l2.1-4.1l1.8-4.3l1.4-4.5l1-4.7l0.4-3.2l0.2-4.9l-0.2-4.9l-0.7-4.8l-1.1-4.6l-1.5-4.5l-1.9-4.2l-2.4-4
					l-2.7-3.8l-3-3.5l-3.3-3.2l-3.6-2.9l-3.9-2.6l-4.1-2.1l-4.3-1.8l-4.5-1.4l-4.7-1l-3.2-0.4L120.2,623.9L120.2,623.9z"/>
			</g>
			<g>
				<path class="st1" d="M659.9,469.7l-20.1,1l-19.4,2.9l-18.9,4.6l-18.2,6.3l-17.3,8l-16.4,9.5l-15.3,10.9L520,525.2l-13.1,13.5
					l-11.8,14.6l-10.4,15.8l-9,16.7l-7.5,17.6l-5.7,18.4l-4,19.1l-1.7,13.1l-1,20l1,20l2.9,19.5l4.6,18.9l6.3,18.1l0,0
					c0,0,8,17.2,8.8,18.6l22.4-5.5l15.4-5.4l-4.7-8.1l-6.4-14l-5.1-14.7l-3.8-15.3l-2.4-15.9l-0.8-16.4l0.8-16.4l1.4-10.6l3.3-15.5
					l4.7-14.9l6-14.3l7.3-13.6l8.5-12.8l9.6-11.9l10.6-10.9l11.6-9.9l12.5-8.9l13.3-7.7l14-6.4l14.7-5.1l15.3-3.8l15.9-2.4l16.4-0.8
					l16.4,0.8l10.6,1.4l15.6,3.3l14.9,4.7l14.3,6l13.5,7.2l6.3,4.2l4.5-10.6l8.4-26.6l-16.3-8.7l-17.6-7.5l-18.4-5.7l-19.1-4
					l-13.1-1.7L659.9,469.7L659.9,469.7z"/>
			</g>
			<g>
				<path class="st1" d="M659.9,546l-12.6,0.6l-12.3,1.7l-11.8,3l-11.4,4l-10.8,5l-10.2,5.9l-9.6,6.9l-8.9,7.7l-8.2,8.5l-7.4,9.2
					l-6.5,9.8l-5.6,10.4l-4.6,11l-3.6,11.6l-2.6,12l-1,8.2l-0.6,12.6l0.6,12.6l1.7,12.3l2.9,11.9l4,11.4l5,10.8l0,0
					c0,0,5.7,10,6.4,11l16.5-7.6l18.3-10.5l-2.8-3.9l-4.1-7.2l-3.5-7.6l-2.8-7.9l-2-8.2l-1.2-8.5l-0.4-8.8l0.4-8.8l0.7-5.7l1.7-8.3
					l2.6-8l3.3-7.7l3.9-7.3l4.5-6.9l5.1-6.3l5.7-5.9l6.2-5.3l6.8-4.8l7.2-4.1l7.6-3.5l7.9-2.8l8.2-2l8.5-1.2l8.8-0.4l8.8,0.4
					l5.7,0.7l8.3,1.7l8,2.6l7.7,3.3l7.3,3.9l6.9,4.5l3,2.3l9.2-13.9l10.7-19.9l-9.7-6.4l-10.4-5.6l-11-4.6l-11.6-3.6l-12-2.6l-8.2-1
					L659.9,546L659.9,546z"/>
			</g>
			<g>
				<path class="st1" d="M660.1,623.9l-4.9,0.2l-4.8,0.7l-4.6,1.1l-4.4,1.5l-4.2,1.9l-4,2.4l-3.8,2.7l-3.5,3l-3.2,3.3l-2.9,3.6
					l-2.6,3.9l-2.1,4.1l-1.8,4.3l-1.4,4.5l-1,4.7l-0.4,3.2l-0.2,4.9l0.2,4.9l0.7,4.8l1.1,4.6l1.5,4.4l1.9,4.2
					c-0.2,0.1,2,4.2,4.6,7.7l9.7-6.9l27.3-23.4l25-25.8l10.1-12.5l-2.9-2.4l-3.9-2.6l-4.1-2.1l-4.3-1.8l-4.5-1.4l-4.7-1l-3.2-0.4
					L660.1,623.9L660.1,623.9z"/>
			</g>
		</g>
	</g>
</g>
<g id="Rectangle">
	<g id="Layer_0_2">
		<g id="Lines-2">
			<g>
				<path class="st0" d="M389.8,240.1L370,282.3l-12.9,23.2l-14.4,21.8l-12.9,15.5L309,363.7l-22.1,19l-9.4,7.4l25.1,20.4l24.1,23.1
					l8.5,9.4l7.9,9.8l11.7,17.2l25.2,46.9l10.3,23.1l19.7-42.2l12.9-23.2l14.4-21.8l12.9-15.5l20.9-20.9c-0.2,0,22.1-19.1,31.5-26.4
					l-25.1-20.4l-24.1-23.1l-8.5-9.4l-7.9-9.8l-11.7-17.2l-25.2-46.9L389.8,240.1L389.8,240.1z"/>
			</g>
		</g>
	</g>
</g>
<g id="Rectangle.1">
	<g id="Layer_0_">
		<g id="Lines">
			<g>
				<path class="st1" d="M390.1,339.8l-5.2,8.9l-12.2,18.1L359,383l-6.7,7.1l6.7,7.1l13.6,16.2l12.2,18.1l5.2,8.9l5.2-8.9l12.2-18.1
					c0-0.1,13.7-16.3,20.4-23.3l-6.7-7.1l-13.6-16.3l-12.2-18L390.1,339.8L390.1,339.8z"/>
			</g>
		</g>
	</g>
</g>
<g id="Circle-2" class="st2">
	<g id="Layer_0_4" class="st3">
		<g id="Lines-4">
			<g>
				<path class="st4" d="M390,13.7l37.1,1.8l23.9,3.1l35.3,7.5l33.9,10.7l32.4,13.7L583.4,67l29,19.2l27,21.8l24.9,24.1l22.6,26.3
					l20.1,28.3l17.4,30.2l14.7,31.9l11.7,33.4l8.6,34.8l5.3,36l1.8,37c-1.7,33.9-4.4,57.3-4.9,61.1l-7.5,35.3l-10.8,33.8l-13.7,32.4
					l-16.5,30.8l-19.2,29l-21.8,27L648,664.3l-26.3,22.6L593.4,707l-30.2,17.4l-32,14.6l-33.4,11.7l-34.8,8.5l-36,5.3l-37,1.8
					l-37.2-1.8l-23.9-3.1l-35.3-7.5l-33.9-10.7l-32.4-13.7L196.5,713l-29-19.2l-27-21.8l-24.9-24.1l-22.4-26.3l-20.1-28.3
					l-17.4-30.2L41,531.2l-11.7-33.4L20.7,463l-5.3-36l-1.8-37l1.8-37.1l3.1-23.9l7.5-35.3l10.7-33.9l13.7-32.4l16.5-30.8l19.2-29
					l21.8-27l24.1-24.9l26.4-22.5l28.3-20.1l30.2-17.4L248.8,41l33.4-11.7l34.8-8.6l36-5.3L390,13.7 M390-0.3l-38.4,1.8L314.3,7
					l-36.1,8.9L243.5,28l-33,15.2l-31.3,18.1l-29.4,20.9l-27.3,23.4l-25,25.8l-22.6,28l-19.9,30l-17.2,31.9l-14.2,33.6l-11.1,35.2
					l-7.8,36.5l-3.2,25L-0.4,390l1.8,38.4l5.5,37.3l8.9,36.1l12.1,34.7l15.3,33.1l18.1,31.3l20.8,29.4l23.4,27.3l25.8,25l28,22.6
					l30.1,20l31.9,17.2l33.6,14.2l35.2,11.1l36.5,7.8l25,3.2l38.4,1.8l38.4-1.8l37.3-5.5l36.1-8.9l34.7-12.1l33.1-15.2l31.3-18.1
					l29.4-20.8l27.3-23.4l25-25.8l22.6-28l20-30l17.2-31.9l14.2-33.6l11.1-35.2l7.8-36.5c0,0,3.2-25,5.1-63.4l-1.8-38.4l-5.5-37.3
					l-8.9-36.1l-12.1-34.7l-15.2-33.1L719,179.4L698.2,150l-23.4-27.3l-25.8-25l-28-22.6l-30-19.9L559.1,38l-33.6-14.2l-35.2-11.1
					l-36.5-7.8l-25-3.2L390-0.3L390-0.3z"/>
			</g>
		</g>
	</g>
</g>
</svg>
