<?xml version="1.0" encoding="utf-8"?>
<!-- Generator: Adobe Illustrator 22.0.1, SVG Export Plug-In . SVG Version: 6.00 Build 0)  -->
<svg version="1.1" xmlns="http://www.w3.org/2000/svg" xmlns:xlink="http://www.w3.org/1999/xlink" x="0px" y="0px"
	 viewBox="0 0 780 780" style="enable-background:new 0 0 780 780;" xml:space="preserve">
<style type="text/css">
	.st0{display:none;}
	.st1{fill:#231F20;}
	.st2{display:inline;fill:none;stroke:#231F20;stroke-width:6;stroke-miterlimit:10;}
	.st3{fill:none;stroke:#231F20;stroke-width:6;stroke-miterlimit:10;}
	.st4{display:inline;fill:#936170;}
	.st5{display:none;fill:#231F20;}
	.st6{fill:#CCCCCC;}
	.st7{fill:#FFFFFF;}
	.st8{display:inline;fill:#231F20;}
</style>
<g id="Layer_1_copy_2" class="st0">
	<path class="st1" d="M390,6c51.8,0,102.1,10.2,149.5,30.2c45.7,19.3,86.8,47,122.1,82.3s63,76.3,82.3,122.1
		c20,47.3,30.2,97.6,30.2,149.5s-10.2,102.1-30.2,149.5c-19.3,45.7-47,86.8-82.3,122.1s-76.3,63-122.1,82.3
		c-47.3,20-97.6,30.2-149.5,30.2S287.9,764,240.5,744c-45.7-19.3-86.8-47-122.1-82.3s-63-76.3-82.3-122.1C16.2,492.1,6,441.8,6,390
		s10.2-102.1,30.2-149.5c19.3-45.7,47-86.8,82.3-122.1s76.3-63,122.1-82.3C287.9,16.2,338.2,6,390,6 M390,0C174.6,0,0,174.6,0,390
		s174.6,390,390,390s390-174.6,390-390S605.4,0,390,0L390,0z"/>
	<path class="st2" d="M74.6,166.9c0,0,66.9,1.1,137.4-23.3S334.4,78.4,377.3,91s14.3,122.7,60.8,145.9s121-43,174.5-56.3
		s90.9-15.5,90.9-15.5"/>
	<path class="st2" d="M1.9,391.6c0,0,110.6-0.4,186-32.9s104.6-52.7,138.3-46.6c57.4,10.5,58.1,125.1,113.4,146.7
		c64,25.1,173.4-46.7,235.3-58.2s100.8-13.1,100.8-13.1"/>
	<circle class="st3" cx="390" cy="390" r="390"/>
	<path class="st4" d="M624.6,615.9c-9.8,1.4-28.7,6.3-50.5,11.9c-44,11.3-102.5,26.3-136.4,26.3c-4.1,0-7.8-0.2-11.1-0.7
		c-42.9-6.1-61.7-31.7-78.4-54.3c-12.7-17.3-23.8-32.3-43.2-34.2c-17.7-1.8-38.9,6.9-63.3,17c-11.4,4.7-23.1,9.5-36.1,14
		C169.7,608.5,99.1,612,77,612.8c12.4,17.3,26.2,33.7,41.4,48.9c35.3,35.3,76.4,63,122.1,82.3c47.4,20,97.6,30.2,149.5,30.2
		c51.9,0,102.2-10.2,149.5-30.2c45.8-19.3,86.8-47,122.1-82.3c15.7-15.7,29.9-32.6,42.5-50.5C689.6,611.4,650,612.1,624.6,615.9z"/>
</g>
<g id="Layer_1_copy_3">
	<path class="st5" d="M390,0C174.6,0,0,174.6,0,390s174.6,390,390,390s390-174.6,390-390S605.4,0,390,0L390,0z"/>
	<g>
		<path class="st6" d="M780,384.4c-0.7-50.7-11-99.9-30.6-146.2c-11-26.1-24.7-50.7-41-73.6c-2.4,0.2-39.7,2.7-91.6,15.6
			c-19.1,4.8-40.8,16.2-63.8,28.4c-31.6,16.7-64,33.9-91.7,33.9c-8.4,0-16.4-1.6-23.9-5.3c-25.4-12.7-29.8-47.8-34.1-81.8
			c-3.9-31.1-7.6-60.4-27.2-66.2c-27.8-8.1-59.3,6.6-99.3,25.2c-19.9,9.3-42.4,19.8-66.7,28.2c-67.4,23.3-132.4,23.9-139.9,23.8
			c-15.7,22.4-28.9,46.3-39.7,71.7C10.6,285.8,0.3,336.3,0.1,388.4c0,0.5,0,1,0,1.5c0,1.5,0,3.1,0,4.6c21.2-0.5,118-4.3,185.9-33.6
			c18.4-7.9,33.9-15.1,47.7-21.4c42.5-19.5,65.9-30.3,91-25.7c28.6,5.2,42.7,37.6,57.7,72c14.1,32.3,28.7,65.8,56.9,76.8
			c9.9,3.9,20.8,5.6,32.4,5.6c39.8,0,87.6-19.7,131-37.5c28.8-11.8,56-23,77.2-27c54.6-10.1,91.9-12.7,100.2-13.2c0-0.2,0-0.3,0-0.5
			C780,388.1,780,386.3,780,384.4z"/>
		<path class="st6" d="M577,631.3C532.4,642.8,472.9,658,438.5,658c-4.1,0-7.9-0.2-11.3-0.7c-43.5-6.2-62.7-32.2-79.6-55.1
			c-12.9-17.6-24.1-32.8-43.9-34.7c-18-1.8-39.5,7-64.3,17.3c-11.5,4.8-23.5,9.7-36.6,14.3c-36.5,12.7-108.3,16.3-130.7,17.1
			c12.5,17.6,26.6,34.2,42.1,49.7c35.8,35.8,77.6,64,124,83.6C286.3,769.6,337.3,780,390,780c52.7,0,103.8-10.4,151.8-30.7
			c46.5-19.6,88.1-47.7,124-83.6c15.9-15.9,30.4-33.1,43.2-51.2c-14.7,0.2-54.9,0.9-80.7,4.7C618.3,620.7,599.2,625.6,577,631.3z"/>
		<path class="st7" d="M704.2,158.8c-11.6-15.7-24.4-30.6-38.4-44.6c-35.8-35.8-77.6-64-124-83.6C493.7,10.4,442.6,0,390,0
			S286.3,10.4,238.3,30.6c-46.5,19.6-88.1,47.7-124,83.6c-14.5,14.5-27.6,29.9-39.5,46.2c-1.5,2-3,4.1-4.4,6.1
			c7.5,0,72.5-0.5,139.9-23.8c24.3-8.4,46.8-18.9,66.7-28.2c40-18.6,71.5-33.3,99.3-25.2c19.6,5.7,23.3,35.1,27.2,66.2
			c4.3,34,8.7,69.1,34.1,81.8c7.4,3.7,15.4,5.3,23.9,5.3c27.7,0,60.1-17.1,91.7-33.9c23-12.1,44.6-23.6,63.8-28.4
			c51.9-12.9,89.3-15.5,91.6-15.6C707,162.7,705.6,160.7,704.2,158.8z"/>
		<path class="st7" d="M679.9,403.7c-21.2,3.9-48.4,15.1-77.2,27c-43.4,17.8-91.3,37.5-131,37.5c-11.6,0-22.5-1.7-32.4-5.6
			c-28.3-11-42.8-44.5-56.9-76.8c-15-34.3-29.1-66.7-57.7-72c-25.1-4.5-48.5,6.2-91,25.7c-13.7,6.3-29.3,13.5-47.7,21.4
			C118.1,390.2,21.2,394,0.1,394.5C0.7,445.5,11,495,30.6,541.8c10.2,24.1,22.7,47,37.3,68.4c1.4,2,2.7,4,4.1,6
			c22.5-0.8,94.2-4.4,130.7-17.1c13.1-4.6,25.1-9.5,36.6-14.3c24.9-10.2,46.3-19.1,64.3-17.3c19.8,2,30.9,17.2,43.9,34.7
			c16.9,22.9,36,48.9,79.6,55.1c3.4,0.5,7.1,0.7,11.3,0.7c34.4,0,93.8-15.3,138.5-26.7c22.1-5.7,41.3-10.6,51.2-12.1
			c25.8-3.8,66-4.5,80.7-4.7c1.4-2,2.8-4.1,4.2-6.1c14.2-20.9,26.2-43.2,36.2-66.6c20.2-48,30.6-98.8,30.7-151.3
			C771.8,391,734.5,393.5,679.9,403.7z"/>
	</g>
</g>
<g id="Layer_1_copy" class="st0">
	<path class="st8" d="M1.9,391.6c0,0,110.6-0.4,186-32.9s104.6-52.7,138.3-46.6c57.4,10.5,58.1,125.1,113.4,146.7
		c64,25.1,173.4-46.7,235.3-58.2s100.8-13.1,100.8-13.1l-72.2-222.4c0,0-37.4,2.2-90.9,15.5s-128,79.5-174.5,56.3
		S420.2,103.6,377.3,91s-94.8,28.2-165.3,52.6S74.6,166.9,74.6,166.9L1.9,391.6"/>
	<path class="st2" d="M70.2,610c0,0,92.4-2.2,134.5-16.9s74.1-33.9,100.7-31.2c46.7,4.7,46.7,77.9,121.7,88.5
		c43.7,6.2,165-32.8,197.1-37.5c32-4.7,85.5-4.7,85.5-4.7"/>
	<path class="st8" d="M390,6c51.8,0,102.1,10.2,149.5,30.2c45.7,19.3,86.8,47,122.1,82.3s63,76.3,82.3,122.1
		c20,47.3,30.2,97.6,30.2,149.5s-10.2,102.1-30.2,149.5c-19.3,45.7-47,86.8-82.3,122.1s-76.3,63-122.1,82.3
		c-47.3,20-97.6,30.2-149.5,30.2S287.9,764,240.5,744c-45.7-19.3-86.8-47-122.1-82.3s-63-76.3-82.3-122.1C16.2,492.1,6,441.8,6,390
		s10.2-102.1,30.2-149.5c19.3-45.7,47-86.8,82.3-122.1s76.3-63,122.1-82.3C287.9,16.2,338.2,6,390,6 M390,0C174.6,0,0,174.6,0,390
		s174.6,390,390,390s390-174.6,390-390S605.4,0,390,0L390,0z"/>
</g>
<g id="Layer_1" class="st0">
	<path class="st2" d="M74.6,166.9c0,0,66.9,1.1,137.4-23.3S334.4,78.4,377.3,91s14.3,122.7,60.8,145.9s121-43,174.5-56.3
		s90.9-15.5,90.9-15.5"/>
	<path class="st2" d="M1.9,391.6c0,0,110.6-0.4,186-32.9s104.6-52.7,138.3-46.6c57.4,10.5,58.1,125.1,113.4,146.7
		c64,25.1,173.4-46.7,235.3-58.2s100.8-13.1,100.8-13.1"/>
	<path class="st2" d="M70.2,610c0,0,92.4-2.2,134.5-16.9s74.1-33.9,100.7-31.2c46.7,4.7,46.7,77.9,121.7,88.5
		c43.7,6.2,165-32.8,197.1-37.5c32-4.7,85.5-4.7,85.5-4.7"/>
	<path class="st8" d="M390,6c51.8,0,102.1,10.2,149.5,30.2c45.7,19.3,86.8,47,122.1,82.3s63,76.3,82.3,122.1
		c20,47.3,30.2,97.6,30.2,149.5s-10.2,102.1-30.2,149.5c-19.3,45.7-47,86.8-82.3,122.1s-76.3,63-122.1,82.3
		c-47.3,20-97.6,30.2-149.5,30.2S287.9,764,240.5,744c-45.7-19.3-86.8-47-122.1-82.3s-63-76.3-82.3-122.1C16.2,492.1,6,441.8,6,390
		s10.2-102.1,30.2-149.5c19.3-45.7,47-86.8,82.3-122.1s76.3-63,122.1-82.3C287.9,16.2,338.2,6,390,6 M390,0C174.6,0,0,174.6,0,390
		s174.6,390,390,390s390-174.6,390-390S605.4,0,390,0L390,0z"/>
</g>
</svg>
